# Blender v2.79 (sub 0) OBJ File: 't-shirts-wd.blend'
# www.blender.org
mtllib t-shirts-wd.mtl
o T_Shirt_female
v 7.892136 2.181553 11.473290
v 10.270559 3.572716 10.183534
v 7.986012 3.845979 11.427347
v 10.174501 5.206376 9.842321
v 7.905272 5.436604 10.994198
v 9.948473 6.738015 9.278681
v 7.713167 6.930973 10.324502
v 9.638998 8.169271 8.558105
v 7.497536 8.373371 9.496964
v 6.139757 -10.441257 7.987208
v 4.153925 -10.350667 8.755512
v 6.164976 -8.991172 8.233378
v 4.182325 -8.884899 8.930282
v 6.075302 -7.525550 8.076282
v 4.140621 -7.410533 8.847177
v 6.254377 -6.099519 8.398133
v 4.233320 -5.949792 9.011762
v 6.368002 -4.636158 8.616212
v 4.342859 -4.515161 9.355217
v 6.436213 -3.146307 8.739843
v 4.403887 -3.043772 9.536309
v 6.776667 -1.863293 9.434081
v 4.573051 -1.634401 9.917981
v 4.865179 -0.393259 10.703481
v 7.229906 -0.771349 10.404313
v 5.109825 0.952926 11.342599
v 7.623508 0.614996 11.094277
v 5.292465 2.453281 11.659544
v 5.370512 4.023090 11.643216
v 5.337080 5.548962 11.289738
v 5.243565 7.007580 10.653053
v 5.132330 8.427006 9.838239
v 2.152794 -10.315805 9.481062
v 2.126661 -8.838810 9.432522
v 2.117418 -7.360466 9.378239
v 2.138355 -5.883724 9.392092
v 2.182140 -4.415493 9.553541
v 2.224287 -2.964254 9.832416
v 2.295570 -1.513103 10.110918
v 2.429949 -0.191265 10.762464
v 2.569147 1.174847 11.314549
v 2.675779 2.634199 11.572460
v 0.443901 10.997445 8.545047
v 2.673037 9.814404 9.088479
v 2.617298 11.177781 8.423434
v 5.003729 9.912373 8.965291
v 4.946507 11.616071 8.076228
v 7.180323 11.501897 7.675751
v 7.284512 9.873921 8.617837
v 9.086466 11.281331 6.968846
v 9.311817 9.649339 7.729274
v 11.041765 9.319047 6.356295
v 10.652485 11.012979 6.029054
v 2.730604 4.126223 11.497577
v 2.743336 5.590382 11.143431
v 2.728315 7.005810 10.554093
v 2.704969 8.397560 9.838263
v 0.026524 -10.298813 9.623126
v 0.022846 -8.817247 9.579730
v 0.018339 -7.333873 9.514845
v 0.015812 -5.849693 9.506207
v 0.013273 -4.370683 9.602607
v 0.005033 -2.909248 9.849998
v -0.010300 -1.475372 10.210567
v -0.001482 -0.123808 10.804025
v 0.014240 1.259054 11.319000
v 0.050772 2.717373 11.544422
v 0.094328 4.194510 11.452181
v 0.146967 5.641514 11.088257
v 0.211466 7.039135 10.514643
v 0.287865 8.424644 9.824403
v 9.119421 -10.855050 5.284447
v 8.925951 -9.442061 5.207050
v 9.198908 -8.006238 5.420649
v 9.428860 -6.552878 5.633650
v 9.674625 -5.103971 5.876710
v 9.898214 -3.653005 6.148148
v 10.130384 -2.238601 6.558514
v 10.672670 -1.014299 7.223854
v 11.318964 0.264719 7.806952
v 11.723364 1.774863 8.093917
v 11.897734 3.350313 8.113562
v 11.837469 4.910203 7.874518
v 11.626215 6.396721 7.470708
v 11.270803 7.821477 6.886060
v 8.055086 -10.591720 7.099443
v 7.660370 -9.175824 6.848515
v 7.749556 -7.725104 6.900672
v 7.977158 -6.289502 7.198421
v 8.147299 -4.828300 7.435517
v 8.310274 -3.371139 7.699342
v 8.684942 -2.097372 8.326894
v 9.287470 -1.006042 9.220565
v 9.796259 0.363792 9.852157
v 10.133799 1.932131 10.187075
v 0.368731 9.776333 9.132478
v -7.820097 2.459976 11.430958
v -10.065817 3.975079 9.989930
v -10.078901 2.303492 10.114353
v -7.813425 4.128685 11.309711
v -9.880117 5.592564 9.651858
v -7.627234 5.704899 10.860044
v -9.541544 7.097928 9.108266
v -7.315313 7.198460 10.192256
v -9.091688 8.547238 8.422981
v -5.887133 -10.328525 7.582162
v -4.082590 -10.296084 8.676844
v -5.912779 -8.858134 7.715965
v -4.079851 -8.816264 8.717529
v -6.032240 -7.399501 7.975282
v -4.112444 -7.337306 8.793701
v -6.194532 -5.950927 8.295677
v -4.201731 -5.869438 9.019657
v -6.352110 -4.495578 8.613944
v -4.299356 -4.412469 9.288597
v -6.439577 -3.007015 8.780763
v -4.608145 -1.552383 10.025460
v -6.824999 -1.757244 9.516243
v -4.883467 -0.283806 10.794195
v -7.265928 -0.606037 10.451295
v -5.092855 1.118498 11.403996
v -7.613508 0.841806 11.103094
v -5.207212 2.625917 11.701409
v -5.192266 4.198460 11.608480
v -5.057528 5.723930 11.228454
v -4.837568 7.146961 10.558726
v -6.925085 8.624336 9.396936
v -2.092268 -10.290754 9.427584
v -2.075327 -7.327543 9.325652
v -2.100622 -5.844377 9.356900
v -2.152391 -4.375892 9.553980
v -2.210909 -2.920355 9.836880
v -4.388830 -2.939119 9.511637
v -2.309206 -1.486507 10.194634
v -2.441843 -0.142504 10.813633
v -2.536123 1.255054 11.324940
v -2.572721 2.718622 11.573681
v -1.696207 11.233296 8.416383
v -1.926371 9.874920 9.071883
v -4.250750 10.047531 8.964206
v -3.973600 11.744287 8.069309
v -6.237585 11.780854 7.697174
v -6.531672 10.127065 8.568356
v -8.215784 11.723809 7.009563
v -8.619528 10.074666 7.730696
v -10.521711 9.935391 6.472255
v -9.945898 11.667851 6.217869
v -2.543627 4.214586 11.493666
v -2.450659 5.670158 11.110036
v -2.308886 7.079197 10.521342
v -4.551802 8.558853 9.766947
v -2.074694 -8.809736 9.376990
v -2.130945 8.464199 9.813240
v -9.000967 -10.576476 4.768044
v -9.414545 -9.259717 5.388683
v -9.233278 -7.766587 5.381478
v -9.315844 -6.288028 5.487606
v -9.553873 -4.830367 5.744022
v -9.764700 -3.361549 6.024756
v -10.028963 -1.942289 6.470931
v -10.645250 -0.693889 7.127291
v -11.248095 0.655024 7.658111
v -11.582483 2.189545 7.905350
v -11.509344 5.384327 7.642799
v -11.154432 6.868287 7.227019
v -10.817362 8.352624 6.767904
v -7.435835 -10.413018 6.203504
v -7.588099 -8.984530 6.521181
v -7.794695 -7.557502 6.898672
v -8.051729 -6.128016 7.280016
v -8.068666 -4.609575 7.334085
v -8.244417 -3.143589 7.618820
v -8.712889 -1.878402 8.328443
v -9.320314 -0.741342 9.187905
v -9.786516 0.685650 9.791396
v -11.671854 3.812253 7.896872
vt 0.122977 0.917447
vt 0.114307 0.845112
vt 0.211421 0.843628
vt 0.217734 0.915428
vt 0.798906 0.719474
vt 0.893490 0.717836
vt 0.892094 0.781336
vt 0.796694 0.780763
vt 0.793458 0.916983
vt 0.698159 0.917630
vt 0.699921 0.847561
vt 0.795058 0.845949
vt 0.409656 0.364856
vt 0.503694 0.366165
vt 0.501945 0.428317
vt 0.406064 0.427010
vt 0.299474 0.545200
vt 0.296470 0.602928
vt 0.202643 0.597545
vt 0.205722 0.539058
vt 0.689761 0.110000
vt 0.778775 0.103557
vt 0.780676 0.167325
vt 0.689588 0.173537
vt 0.796562 0.544064
vt 0.887937 0.534052
vt 0.891258 0.594649
vt 0.799300 0.602128
vt 0.690593 0.047109
vt 0.780479 0.041703
vt 0.788642 0.423145
vt 0.881201 0.411516
vt 0.883680 0.473448
vt 0.792570 0.484692
vt 0.221864 0.355063
vt 0.315578 0.362341
vt 0.310132 0.425131
vt 0.215954 0.418205
vt 0.598717 0.175262
vt 0.691287 0.237752
vt 0.598645 0.239341
vt 0.500728 0.666731
vt 0.500509 0.607848
vt 0.604172 0.607752
vt 0.604609 0.666389
vt 0.506503 0.239030
vt 0.598496 0.303319
vt 0.505196 0.302920
vt 0.507817 0.174952
vt 0.705284 0.664307
vt 0.799833 0.660469
vt 0.703698 0.722690
vt 0.870596 0.154927
vt 0.873401 0.219370
vt 0.783001 0.231603
vt 0.508247 0.968432
vt 0.506199 0.911549
vt 0.601757 0.914175
vt 0.600139 0.977718
vt 0.691912 0.301663
vt 0.784659 0.295599
vt 0.786274 0.360025
vt 0.692149 0.365316
vt 0.866547 0.090454
vt 0.239072 0.098545
vt 0.235579 0.162541
vt 0.147384 0.148862
vt 0.151106 0.084861
vt 0.322446 0.234432
vt 0.414626 0.237395
vt 0.412112 0.301412
vt 0.319086 0.298512
vt 0.325803 0.169959
vt 0.417028 0.173184
vt 0.704707 0.605776
vt 0.419244 0.109419
vt 0.509246 0.111290
vt 0.693954 0.427800
vt 0.599306 0.111680
vt 0.328724 0.106085
vt 0.242015 0.035562
vt 0.155002 0.021898
vt 0.048598 0.998059
vt 0.025520 0.922106
vt 0.130511 0.995871
vt 0.303948 0.485774
vt 0.210644 0.479482
vt 0.893058 0.655197
vt 0.999900 0.652725
vt 0.998403 0.721117
vt 0.604088 0.725431
vt 0.701547 0.783271
vt 0.603131 0.786023
vt 0.501409 0.726021
vt 0.314008 0.914910
vt 0.307960 0.844976
vt 0.405804 0.847212
vt 0.410791 0.912967
vt 0.396998 0.606206
vt 0.396989 0.664809
vt 0.296358 0.661056
vt 0.398512 0.547622
vt 0.501038 0.489092
vt 0.598283 0.428575
vt 0.600276 0.489474
vt 0.500391 0.548843
vt 0.602658 0.549000
vt 0.504201 0.849041
vt 0.502566 0.786374
vt 0.602420 0.848683
vt 0.597902 0.366453
vt 0.114504 0.528381
vt 0.119696 0.467485
vt 0.401643 0.487861
vt 0.110423 0.589601
vt 0.107626 0.651213
vt 0.000100 0.648033
vt 0.004998 0.577390
vt 0.961849 0.995711
vt 0.883148 0.994623
vt 0.886439 0.917894
vt 0.980774 0.922694
vt 0.956595 0.076399
vt 0.959357 0.138626
vt 0.963452 0.201161
vt 0.876478 0.283710
vt 0.968401 0.263973
vt 0.972824 0.326898
vt 0.879284 0.348474
vt 0.974963 0.389247
vt 0.979300 0.451544
vt 0.107172 0.714050
vt 0.001642 0.717551
vt 0.995567 0.584175
vt 0.987922 0.516620
vt 0.993616 0.787637
vt 0.987121 0.854756
vt 0.889465 0.846427
vt 0.220648 0.995378
vt 0.699536 0.998061
vt 0.702105 0.547512
vt 0.698664 0.488624
vt 0.600584 0.048833
vt 0.231069 0.226926
vt 0.795859 0.995744
vt 0.398719 0.723853
vt 0.401748 0.784409
vt 0.302431 0.780294
vt 0.298598 0.719779
vt 0.226628 0.290872
vt 0.142268 0.212093
vt 0.129424 0.341303
vt 0.135733 0.276273
vt 0.124237 0.405840
vt 0.868515 0.025624
vt 0.201580 0.656137
vt 0.202695 0.715536
vt 0.205982 0.777983
vt 0.318649 0.996073
vt 0.417178 0.976902
vt 0.420845 0.046612
vt 0.331113 0.043004
vt 0.024115 0.444023
vt 0.032633 0.380046
vt 0.044893 0.253478
vt 0.052433 0.189884
vt 0.510607 0.048402
vt 0.109432 0.777724
vt 0.060654 0.064125
vt 0.067093 0.000100
vt 0.060487 0.127696
vt 0.037731 0.316935
vt 0.958542 0.015401
vt 0.013655 0.509920
vt 0.013865 0.852830
vt 0.007380 0.785291
vn -0.4396 0.4327 0.7871
vn -0.5136 0.4571 0.7261
vn -0.2458 0.5074 0.8259
vn -0.2306 0.4884 0.8416
vn 0.2898 0.3235 0.9008
vn 0.6199 0.2706 0.7366
vn 0.5774 0.4098 0.7062
vn 0.2756 0.4551 0.8468
vn 0.2654 0.4973 0.8260
vn 0.0847 0.4847 0.8705
vn 0.0642 0.4971 0.8653
vn 0.2647 0.5090 0.8190
vn -0.0618 -0.2261 0.9721
vn 0.0034 -0.2045 0.9789
vn 0.0098 -0.3261 0.9453
vn -0.0306 -0.3598 0.9325
vn -0.0242 -0.2918 0.9562
vn -0.0278 -0.0660 0.9974
vn -0.3131 -0.0788 0.9464
vn -0.2764 -0.3353 0.9007
vn 0.3101 -0.0087 0.9507
vn 0.4796 0.0069 0.8775
vn 0.4681 -0.0811 0.8799
vn 0.2840 -0.0285 0.9584
vn 0.2452 -0.3646 0.8983
vn 0.5845 -0.4049 0.7032
vn 0.6366 -0.1710 0.7520
vn 0.2772 -0.1287 0.9522
vn 0.3150 -0.0922 0.9446
vn 0.4677 -0.0226 0.8836
vn 0.2359 -0.5747 0.7836
vn 0.4917 -0.5850 0.6449
vn 0.5009 -0.6017 0.6221
vn 0.2046 -0.5703 0.7956
vn -0.3904 -0.3498 0.8516
vn -0.1912 -0.2736 0.9427
vn -0.1049 -0.4600 0.8817
vn -0.2740 -0.5775 0.7690
vn 0.1471 0.0049 0.9891
vn 0.2390 -0.1597 0.9578
vn 0.1092 -0.0839 0.9905
vn 0.0006 0.1516 0.9884
vn 0.0003 -0.0516 0.9987
vn -0.0258 -0.0640 0.9976
vn -0.0293 0.1406 0.9896
vn -0.0078 -0.0498 0.9987
vn 0.0697 -0.1503 0.9862
vn -0.0030 -0.1362 0.9907
vn -0.0116 0.0172 0.9998
vn 0.0267 0.1309 0.9910
vn 0.2979 0.1197 0.9470
vn 0.0370 0.3221 0.9460
vn 0.6535 -0.1507 0.7418
vn 0.6149 -0.2202 0.7573
vn 0.4270 -0.2062 0.8804
vn 0.0019 0.4353 0.9003
vn 0.0026 0.4486 0.8937
vn 0.0161 0.4596 0.8880
vn 0.0260 0.4447 0.8953
vn 0.2219 -0.1632 0.9613
vn 0.4232 -0.1637 0.8911
vn 0.3730 -0.2978 0.8787
vn 0.1984 -0.2276 0.9533
vn 0.6892 0.0320 0.7238
vn -0.5154 -0.1463 0.8444
vn -0.4427 -0.2099 0.8718
vn -0.6001 -0.2021 0.7740
vn -0.5793 -0.2043 0.7891
vn -0.2517 -0.1692 0.9529
vn -0.1168 -0.0915 0.9889
vn -0.0816 -0.1549 0.9846
vn -0.2247 -0.1741 0.9588
vn -0.3184 -0.1090 0.9417
vn -0.1656 -0.0184 0.9860
vn 0.0159 -0.0905 0.9958
vn -0.2015 0.0165 0.9794
vn -0.0127 0.0359 0.9993
vn 0.1014 -0.4398 0.8924
vn 0.1687 0.0211 0.9854
vn -0.3869 -0.0468 0.9209
vn -0.5588 -0.1073 0.8223
vn -0.5748 -0.2723 0.7717
vn -0.4760 0.3515 0.8062
vn -0.5395 0.3788 0.7520
vn -0.3904 0.4204 0.8190
vn -0.0333 -0.4636 0.8854
vn -0.2423 -0.5472 0.8011
vn 0.6455 0.0685 0.7607
vn 0.7833 0.0393 0.6205
vn 0.7575 0.2276 0.6118
vn -0.0281 0.3120 0.9497
vn 0.0494 0.4475 0.8929
vn -0.0191 0.4260 0.9045
vn 0.0001 0.3144 0.9493
vn -0.0700 0.4765 0.8764
vn -0.0578 0.4871 0.8714
vn 0.0049 0.4626 0.8865
vn -0.0071 0.4555 0.8902
vn 0.0276 -0.0552 0.9981
vn 0.0294 0.1524 0.9879
vn -0.0392 0.1623 0.9860
vn 0.0218 -0.2632 0.9645
vn 0.0052 -0.3851 0.9229
vn 0.0365 -0.3462 0.9375
vn -0.0008 -0.4188 0.9081
vn -0.0002 -0.2588 0.9659
vn -0.0208 -0.2781 0.9603
vn 0.0016 0.4561 0.8899
vn 0.0004 0.4169 0.9090
vn -0.0027 0.4699 0.8827
vn 0.0578 -0.1969 0.9787
vn -0.6254 -0.3701 0.6869
vn -0.5586 -0.5634 0.6087
vn 0.0057 -0.3993 0.9168
vn -0.6668 -0.1131 0.7366
vn -0.6601 0.1345 0.7391
vn -0.7980 0.1055 0.5933
vn -0.8086 -0.1351 0.5726
vn 0.5665 0.3488 0.7466
vn 0.4768 0.4013 0.7821
vn 0.5053 0.4377 0.7437
vn 0.6138 0.3857 0.6888
vn 0.7992 0.0543 0.5986
vn 0.7096 -0.1910 0.6782
vn 0.6854 -0.2224 0.6934
vn 0.6029 -0.1932 0.7741
vn 0.6792 -0.2164 0.7013
vn 0.6626 -0.3052 0.6840
vn 0.5615 -0.3251 0.7610
vn 0.6386 -0.5055 0.5802
vn 0.6402 -0.5837 0.4995
vn -0.6196 0.3128 0.7199
vn -0.7599 0.2782 0.5875
vn 0.7731 -0.1876 0.6059
vn 0.7221 -0.4188 0.5506
vn 0.7175 0.3652 0.5932
vn 0.6767 0.4165 0.6071
vn 0.5419 0.4667 0.6990
vn -0.2268 0.4716 0.8521
vn 0.1032 0.4684 0.8775
vn 0.0065 -0.3169 0.9484
vn 0.0197 -0.4867 0.8734
vn 0.1817 -0.0049 0.9833
vn -0.4159 -0.2074 0.8855
vn 0.2734 0.4697 0.8394
vn 0.0265 0.3208 0.9468
vn 0.0168 0.4266 0.9043
vn -0.0492 0.4541 0.8896
vn -0.0455 0.3382 0.9400
vn -0.4308 -0.1686 0.8866
vn -0.6344 -0.1883 0.7497
vn -0.6018 -0.3556 0.7151
vn -0.6374 -0.1711 0.7513
vn -0.5362 -0.5938 0.6000
vn 0.7210 0.1686 0.6721
vn -0.3152 0.1701 0.9337
vn -0.3015 0.3502 0.8868
vn -0.2692 0.4714 0.8398
vn -0.0786 0.4670 0.8808
vn -0.0123 0.4449 0.8955
vn -0.2157 0.0188 0.9763
vn -0.4189 -0.0253 0.9077
vn -0.6903 -0.5525 0.4671
vn -0.6685 -0.5209 0.5308
vn -0.7301 -0.1753 0.6604
vn -0.7543 -0.1622 0.6362
vn -0.0123 0.0319 0.9994
vn -0.5717 0.4311 0.6980
vn -0.5699 -0.2507 0.7825
vn -0.5205 -0.3607 0.7740
vn -0.6807 -0.1368 0.7197
vn -0.6864 -0.3264 0.6498
vn 0.8077 0.2576 0.5303
vn -0.7660 -0.3782 0.5199
vn -0.6420 0.3975 0.6556
vn -0.7120 0.3856 0.5869
usemtl initialShadingGroup
s 1
f 145/1/1 105/2/2 127/3/3 143/4/4
f 5/5/5 4/6/6 6/7/7 7/8/8
f 49/9/9 46/10/10 32/11/11 9/12/12
f 132/13/13 63/14/14 64/15/15 134/16/16
f 121/17/17 123/18/18 97/19/19 122/20/20
f 13/21/21 12/22/22 14/23/23 15/24/24
f 27/25/25 94/26/26 95/27/27 1/28/28
f 11/29/29 10/30/30 12/22/22 13/21/21
f 22/31/31 92/32/32 93/33/33 25/34/34
f 116/35/35 133/36/36 117/37/37 118/38/38
f 35/39/39 15/24/24 17/40/40 36/41/41
f 68/42/42 67/43/43 42/44/44 54/45/45
f 61/46/46 36/41/41 37/47/47 62/48/48
f 60/49/49 35/39/39 36/41/41 61/46/46
f 29/50/50 3/51/51 5/5/5 30/52/52
f 14/23/23 88/53/53 89/54/54 16/55/55
f 43/56/56 96/57/57 44/58/58 45/59/59
f 19/60/60 18/61/61 20/62/62 21/63/63
f 12/22/22 87/64/64 88/53/53 14/23/23
f 17/40/40 16/55/55 18/61/61 19/60/60
f 108/65/65 110/66/66 169/67/67 168/68/68
f 113/69/69 130/70/70 131/71/71 115/72/72
f 111/73/73 129/74/74 130/70/70 113/69/69
f 42/44/44 28/75/75 29/50/50 54/45/45
f 152/76/76 59/77/77 60/49/49 129/74/74
f 21/63/63 20/62/62 22/31/31 23/78/78
f 34/79/79 13/21/21 15/24/24 35/39/39
f 109/80/80 152/76/76 129/74/74 111/73/73
f 115/72/72 131/71/71 132/13/13 133/36/36
f 106/81/81 108/65/65 168/68/68 167/82/82
f 147/83/83 146/84/84 145/1/1 144/85/85
f 118/38/38 117/37/37 119/86/86 120/87/87
f 4/6/6 2/88/88 82/89/89 83/90/90
f 55/91/91 30/52/52 31/92/92 56/93/93
f 133/36/36 132/13/13 134/16/16 117/37/37
f 68/42/42 54/45/45 55/91/91 69/94/94
f 31/92/92 7/8/8 9/12/12 32/11/11
f 59/77/77 34/79/79 35/39/39 60/49/49
f 140/95/95 151/96/96 153/97/97 139/98/98
f 137/99/99 148/100/100 124/101/101 123/18/18
f 121/17/17 136/102/102 137/99/99 123/18/18
f 65/103/103 64/15/15 39/104/104 40/105/105
f 66/106/106 65/103/103 40/105/105 41/107/107
f 67/43/43 66/106/106 41/107/107 42/44/44
f 71/108/108 70/109/109 56/93/93 57/110/110
f 63/14/14 38/111/111 39/104/104 64/15/15
f 62/48/48 37/47/47 38/111/111 63/14/14
f 69/94/94 55/91/91 56/93/93 70/109/109
f 120/87/87 122/20/20 175/112/112 174/113/113
f 119/86/86 135/114/114 136/102/102 121/17/17
f 99/115/115 98/116/116 176/117/117 163/118/118
f 53/119/119 50/120/120 51/121/121 52/122/122
f 87/64/64 73/123/123 74/124/124 88/53/53
f 88/53/53 74/124/124 75/125/125 89/54/54
f 90/126/126 76/127/127 77/128/128 91/129/129
f 89/54/54 75/125/125 76/127/127 90/126/126
f 92/32/32 78/130/130 79/131/131 93/33/33
f 176/117/117 98/116/116 101/132/132 164/133/133
f 91/129/129 77/128/128 78/130/130 92/32/32
f 95/27/27 81/134/134 82/89/89 2/88/88
f 93/33/33 79/131/131 80/135/135 94/26/26
f 6/7/7 4/6/6 83/90/90 84/136/136
f 85/137/137 52/122/122 51/121/121 8/138/138
f 143/4/4 142/139/139 144/85/85 145/1/1
f 45/59/59 44/58/58 46/10/10 47/140/140
f 26/141/141 24/142/142 25/34/34 27/25/25
f 33/143/143 11/29/29 13/21/21 34/79/79
f 24/142/142 23/78/78 22/31/31 25/34/34
f 139/98/98 153/97/97 71/108/108 96/57/57
f 111/73/73 113/69/69 112/144/144 110/66/66
f 49/9/9 48/145/145 47/140/140 46/10/10
f 50/120/120 48/145/145 49/9/9 51/121/121
f 149/146/146 150/147/147 126/148/148 125/149/149
f 129/74/74 60/49/49 61/46/46 130/70/70
f 150/147/147 153/97/97 151/96/96 126/148/148
f 7/8/8 6/7/7 8/138/138 9/12/12
f 40/105/105 39/104/104 23/78/78 24/142/142
f 8/138/138 6/7/7 84/136/136 85/137/137
f 134/16/16 64/15/15 65/103/103 135/114/114
f 130/70/70 61/46/46 62/48/48 131/71/71
f 3/51/51 2/88/88 4/6/6 5/5/5
f 115/72/72 133/36/36 116/35/35 114/150/150
f 70/109/109 71/108/108 153/97/97 150/147/147
f 110/66/66 112/144/144 170/151/151 169/67/67
f 114/150/150 116/35/35 172/152/152 171/153/153
f 118/38/38 120/87/87 174/113/113 173/154/154
f 10/30/30 86/155/155 87/64/64 12/22/22
f 67/43/43 68/42/42 148/100/100 137/99/99
f 28/75/75 1/28/28 3/51/51 29/50/50
f 122/20/20 97/19/19 99/115/115 175/112/112
f 98/116/116 99/115/115 97/19/19 100/156/156
f 100/156/156 97/19/19 123/18/18 124/101/101
f 102/157/157 100/156/156 124/101/101 125/149/149
f 104/158/158 102/157/157 125/149/149 126/148/148
f 117/37/37 134/16/16 135/114/114 119/86/86
f 20/62/62 91/129/129 92/32/32 22/31/31
f 41/107/107 40/105/105 24/142/142 26/141/141
f 56/93/93 31/92/92 32/11/11 57/110/110
f 142/139/139 143/4/4 140/95/95 141/159/159
f 143/4/4 127/3/3 151/96/96 140/95/95
f 96/57/57 43/56/56 138/160/160 139/98/98
f 15/24/24 14/23/23 16/55/55 17/40/40
f 39/104/104 38/111/111 21/63/63 23/78/78
f 138/160/160 141/159/159 140/95/95 139/98/98
f 128/161/161 152/76/76 109/80/80 107/162/162
f 173/154/154 174/113/113 161/163/163 160/164/164
f 170/151/151 171/153/153 158/165/165 157/166/166
f 58/167/167 33/143/143 34/79/79 59/77/77
f 42/44/44 41/107/107 26/141/141 28/75/75
f 46/10/10 44/58/58 57/110/110 32/11/11
f 148/100/100 149/146/146 125/149/149 124/101/101
f 136/102/102 66/106/106 67/43/43 137/99/99
f 104/158/158 127/3/3 105/2/2 103/168/168
f 16/55/55 89/54/54 90/126/126 18/61/61
f 102/157/157 104/158/158 103/168/168 101/132/132
f 100/156/156 102/157/157 101/132/132 98/116/116
f 1/28/28 95/27/27 2/88/88 3/51/51
f 131/71/71 62/48/48 63/14/14 132/13/13
f 135/114/114 65/103/103 66/106/106 136/102/102
f 128/161/161 58/167/167 59/77/77 152/76/76
f 107/162/162 109/80/80 108/65/65 106/81/81
f 36/41/41 17/40/40 19/60/60 37/47/47
f 37/47/47 19/60/60 21/63/63 38/111/111
f 167/82/82 168/68/68 155/169/169 154/170/170
f 168/68/68 169/67/67 156/171/171 155/169/169
f 171/153/153 172/152/152 159/172/172 158/165/165
f 86/155/155 72/173/173 73/123/123 87/64/64
f 169/67/67 170/151/151 157/166/166 156/171/171
f 172/152/152 173/154/154 160/164/164 159/172/172
f 174/113/113 175/112/112 162/174/174 161/163/163
f 175/112/112 99/115/115 163/118/118 162/174/174
f 146/84/84 166/175/175 105/2/2 145/1/1
f 165/176/176 103/168/168 105/2/2 166/175/175
f 164/133/133 101/132/132 103/168/168 165/176/176
f 51/121/121 49/9/9 9/12/12 8/138/138
f 116/35/35 118/38/38 173/154/154 172/152/152
f 113/69/69 115/72/72 114/150/150 112/144/144
f 112/144/144 114/150/150 171/153/153 170/151/151
f 18/61/61 90/126/126 91/129/129 20/62/62
f 25/34/34 93/33/33 94/26/26 27/25/25
f 69/94/94 70/109/109 150/147/147 149/146/146
f 68/42/42 69/94/94 149/146/146 148/100/100
f 120/87/87 119/86/86 121/17/17 122/20/20
f 57/110/110 44/58/58 96/57/57 71/108/108
f 109/80/80 111/73/73 110/66/66 108/65/65
f 30/52/52 5/5/5 7/8/8 31/92/92
f 54/45/45 29/50/50 30/52/52 55/91/91
f 127/3/3 104/158/158 126/148/148 151/96/96
f 28/75/75 26/141/141 27/25/25 1/28/28
f 94/26/26 80/135/135 81/134/134 95/27/27
