<?xml version="1.0" encoding="utf-8"?>
<svg version="1.1" id="Capa_1" xmlns="http://www.w3.org/2000/svg" xmlns:xlink="http://www.w3.org/1999/xlink" x="0px" y="0px" viewBox="0 0 256 256"
	 style="enable-background:new 0 0 256 256;" xml:space="preserve">
<style type="text/css">
	.st0{fill:#FFFFFF;}
</style>
		<g id="XMLID_2_">
			<path id="XMLID_48_" d="M48.2,205.2c5.6,2.2,10.9,3.1,16.8,2.7c-0.3-0.6-0.5-1.1-0.7-1.5c-6.8-9.9-10.5-21-12.3-32.8
				c-0.6-4-2.3-7.9-3.5-11.8c-1.4-4.4-3-8.6-4.2-13.1c-1-4-1.6-8.2-2.3-12.3c-0.4-2.1-0.7-4.2-1.1-6.2c-0.8-3.6-0.6-7,0.4-10.5
				c0.7-2.1,1.4-4.3,2.2-6.7c-0.7-0.3-1.8-0.9-2.9-1.4c-5.9-2.7-11.4-5.9-16-10.6c-3.4-3.5-6.3-7.3-6.2-12.6
				c0.1-3.3,1.6-5.9,4.2-7.8c3.6-2.7,7.9-3.5,12.2-4C43,75.6,51,77,58.9,78.8c3.7,0.9,3.7,1,4.8-2.6c4-13.5,8-27.1,12-40.6
				c1.4-4.6,3.1-9,6.4-12.6c2.9-3.2,6.6-5,10.9-6.1c11.2-2.9,22.3-1.7,33.5-0.2c14.6,2,28.8,5.7,42.8,10.4c11.8,4,23.1,9,33.8,15.1
				c6.9,3.9,13.2,8.6,17.7,15.2c3.5,5,3.9,10.9,2.4,16.5c-2.7,10.3-5.9,20.4-8.9,30.7c-1.7,5.7-3.3,11.3-4.9,17
				c-0.4,1.4,0.5,1.8,1.5,2c5.9,1.7,11.5,4.3,16.7,7.5c4.6,2.8,8.5,6.3,11.6,10.8c4.9,7.1,1.8,16-5,19.8c-5,2.8-10.4,4-16,4.1
				c-5.1,0.1-10.3-0.4-15.4-0.8c-1.6-0.1-2.4,0.3-3.2,1.7c-3.5,5.5-4.1,12-5.8,18.1c-1.9,6.5-4.4,12.8-8.1,18.5
				c-0.2,0.3-0.3,0.7-0.7,1.5c6,0,11.5-1.4,16.7-3.8c0.1,0.2,0.2,0.4,0.3,0.6c-1.7,1-3.3,2.3-5.1,2.9c-4.4,1.7-9,3-13.4,4.6
				c-1.2,0.5-2.6,1.2-3.4,2.2c-8,9.5-17.6,16.9-29.2,21.4c-4.5,1.8-9.3,2.8-13.9,4.2c-1.1,0.3-2,0.5-2.3,1.9c-0.2,0.9-1,1.7-1.8,2.3
				c-2,1.4-4.1,2.7-6.2,3.9c-0.3,0.2-0.9,0.1-1.2-0.1c-1-0.4-2.1-0.7-2.9-1.4c-2-1.6-4.8-2.1-5.7-5c-0.1-0.4-1.1-0.7-1.7-0.8
				c-5.6-1.5-11.4-2.5-16.9-4.4c-8.3-2.9-15.7-7.6-22.2-13.5c-2.1-1.9-3.9-4.1-6-6c-0.7-0.7-1.8-1.1-2.7-1.3
				c-6-1.2-11.9-2.7-17.3-5.6c-0.4-0.2-0.8-0.5-1.2-0.8C48.6,206,48.5,205.8,48.2,205.2z M75.8,214.1c-0.1,0.3-0.2,0.5-0.3,0.8
				c1.7,1.5,3.4,3,5.2,4.5c4.5,3.8,9.5,7,14.9,9.4c5.5,2.4,11.3,3.8,17,5.3c5.8,1.6,11.6-0.8,17.3,0.7c0.1,0,0.1,0,0.2,0
				c5.6-1.3,11.3-2.3,16.8-4.1c8.7-2.8,16.3-7.7,23.1-13.7c1.8-1.6,3.4-3.3,5.3-5.3c-3,0-5.4-0.1-7.9,0.1c-1,0.1-2.3,0.6-3,1.3
				c-3.5,3.9-7.4,7.3-11.9,10.1c-1,0.6-2.1,1.1-3.2,1.7c-0.1-0.8,0.2-1.2,0.3-1.6c1.4-3.7,2.8-7.3,4.2-11c0.4-1.1,0-1.7-1.2-1.9
				c-2.7-0.5-5.4-1.2-8.1-1.8c-0.9-0.2-1.5,0-1.6,1c-0.1,0.7-0.2,1.4-0.4,2c-1,4-1.9,8-2.9,11.9c-0.4,1.3-1.1,2.5-1.7,3.7
				c-0.2-0.1-0.3-0.1-0.5-0.2c0-0.3,0.1-0.7,0.1-1c0.7-5.5,1.5-11,2.1-16.5c0.2-2-0.2-2.3-2.2-2.4c-1.4-0.1-2.9-0.3-4.3-0.7
				c-2.9-0.8-4.7-3.1-4.9-6.1c-0.2-2.5,1.3-4.9,4-6.2c2.5-1.2,5.2-1.4,8-1.1c6.1,0.7,11.8,2.7,17.4,5.1c1.2,0.5,2.2,0.5,3.4-0.2
				c2-1.1,4-2,6.2-2.7c6.8-2.3,13-5.5,18-10.7c5.3-5.5,8-12,8.1-19.7c0-1.4-0.5-2.2-1.9-2.6c-2.9-0.9-5.8-2-8.6-3.2
				c-1.2-0.5-1.8-0.4-2.4,0.8c-3.8,8-10.1,12.4-19,13.1c-9.8,0.8-19.1-5.6-21.9-14.9c-1.7-5.5-0.8-10.7,1.6-15.7
				c0.6-1.3,0.4-1.8-0.9-2.3c-2.8-1.1-5.6-2.3-8.3-3.5c-12.8-5.8-25.6-11.6-38.3-17.6c-6.2-2.9-12.1-6.3-18.1-9.6
				c-1.6-0.9-2.7-0.6-3.9,0.7c-4.4,4.8-7.4,10.6-10.4,16.3c-2.3,4.5-4.3,9.1-5.1,14.1c-1.6,9.5-2.2,19-1.4,28.5
				c0.5,5.7,2.2,11,5.9,15.5c4.6,5.6,10.6,9,17.3,11.4c3.5,1.3,7.1,2.4,10.6,3.8c1.1,0.5,1.9,0.6,3,0.1c4.8-2,9.6-3.9,14.5-5.7
				c3.1-1.1,6.4-1.2,9.6-0.4c3.1,0.8,5.3,3.2,5.5,6c0.2,3-1.3,5.5-4.5,6.7c-1.5,0.6-3.2,0.8-4.9,1.1c-1.2,0.2-1.8,0.7-1.6,2
				c0.6,4.1,1.1,8.1,1.7,12.2c0.3,2,1,4,1.5,6c-0.2,0.1-0.3,0.2-0.5,0.2c-0.6-0.9-1.3-1.8-1.6-2.8c-1.5-4.7-2.8-9.5-4.2-14.3
				c-0.3-1.2-0.8-1.7-2.1-1.3c-2.7,0.8-5.4,1.5-8,2.2c-0.9,0.2-1.3,0.6-1,1.6c0.7,1.9,1.1,3.8,1.9,5.6c1,2.3,2.3,4.6,3.7,7.3
				c-1-0.4-1.6-0.6-2.2-0.9c-5-2.5-9.3-6-13.4-9.8c-0.7-0.6-1.5-1.5-2.3-1.5C81.4,214,78.6,214.1,75.8,214.1z M82,89.3
				c-0.1,0.2-0.2,0.4-0.3,0.5c22.9,13.3,47,24,72.1,32.4c-13.3-6.4-26.7-12.7-39.6-20c6.7,2.5,13.2,5.3,19.9,7.9
				c6.7,2.6,13.5,5.1,20.2,7.6c0.1-0.2,0.2-0.4,0.2-0.6c-13-6.2-26.2-12-38.6-19.2c12.9,5.3,25.9,10.4,39.1,14.9
				c0.1-0.1,0.1-0.3,0.2-0.4c-12.6-6-25.1-12-37.7-18.1c0.1-0.2,0.2-0.5,0.3-0.7c12.9,5.4,26,10.5,39.4,14.6
				c-12.7-6-25.4-11.8-37.7-18.5c6.5,2.3,12.9,4.9,19.4,7.3c6.5,2.4,13,4.7,19.6,7c0.1-0.2,0.2-0.4,0.2-0.6
				c-6.3-2.9-12.7-5.7-19-8.6c-6.3-2.9-12.5-6-18.7-8.9c0.1-0.2,0.2-0.5,0.3-0.7c12.7,5.4,25.7,10,38.9,14.1
				c-1.3-0.9-2.8-1.5-4.2-2.2c-8.7-4-17.5-7.8-26.2-11.9c-12.1-5.8-24.1-11.5-36.8-15.8c-2.3-0.8-4.7-1.5-7-2.2
				c-0.1,0.2-0.2,0.4-0.3,0.6c5.9,3.2,11.8,6.4,17.8,9.5c-0.1,0.2-0.2,0.4-0.3,0.5c-1.5-0.6-3.1-1.2-4.6-1.7c-1.5-0.6-3-1.1-4.6-1.7
				c-1.6-0.6-3.2-1.1-4.8-1.6c-1.5-0.5-3.1-0.8-4.6-1.3c-0.1,0.2-0.1,0.4-0.2,0.5c5.7,3.1,11.4,6.1,17.2,9.2
				c-0.1,0.2-0.1,0.3-0.2,0.5c-5.9-2-11.8-4-17.7-6.1c-0.1,0.2-0.2,0.4-0.3,0.7c5.6,3,11.2,6,16.8,9.1c-0.1,0.2-0.2,0.3-0.2,0.5
				c-5.8-1.9-11.5-3.9-17.3-5.8c-0.1,0.2-0.2,0.4-0.3,0.7c5.4,2.9,10.7,5.8,16.1,8.6c-0.1,0.2-0.2,0.4-0.3,0.6
				c-5.2-1.8-10.5-3.5-15.7-5.3c-0.1,0.2-0.2,0.4-0.2,0.6c4.9,2.6,9.7,5.3,14.6,7.9c-0.1,0.3-0.2,0.5-0.4,0.8
				C91.6,92.6,86.8,90.9,82,89.3z M229.5,141.8c-1.2,0.9-2,1.7-3.1,2.3c-4,2.3-8.4,2.2-12.7,2c-8.1-0.3-16-2.1-23.6-4.7
				c-14.8-5.2-29.5-10.7-44.2-16.1c-1.3-0.5-2.7-0.9-4-1.4c0.4,0.6,0.9,0.9,1.5,1.2c11.3,4.8,22.6,9.9,34,14.4
				c8.6,3.4,17.2,7,26.4,8.5c4.8,0.8,9.5,1.7,14.3,1.2c3.6-0.4,7.1-1.1,9.9-3.6C229.1,144.6,230,143.6,229.5,141.8z M146.4,163.6
				c-0.1,0.2-0.2,0.4-0.3,0.6c0.4,0.5,0.7,1,1.1,1.4c7.5,6.9,20.2,6.6,27.4-0.7c0.5-0.5,0.7-1.1,1.1-1.7c-0.1-0.1-0.3-0.3-0.4-0.4
				c-1.8,0.7-3.6,1.4-5.4,2c-0.1-0.1-0.1-0.2-0.2-0.3c0.8-1.1,1.6-2.3,2.4-3.4c-0.1-0.1-0.3-0.3-0.4-0.4c-2,0.8-4,1.7-6,2.5
				c-0.2-0.3-0.5-0.6-0.7-0.9c1-0.5,2.1-0.9,3.1-1.4c-0.2-0.4-0.4-0.7-0.7-1.1c-4.4,1.9-8.8,2-13.4,0.6c-0.1,0.3-0.2,0.5-0.3,0.8
				c0.8,0.5,1.7,1.1,2.5,1.6c-0.2,0.2-0.3,0.5-0.5,0.7c-2-0.7-4-1.4-6-2.2c-0.1,0.1-0.3,0.3-0.4,0.4c0.9,1.1,1.8,2.2,2.8,3.4
				c-0.1,0.1-0.2,0.2-0.2,0.3C150.1,164.9,148.2,164.3,146.4,163.6z M178.5,204.9c1.5,0.3,2.5-0.3,3-1.8c0.2-0.6,0.7-1.2,0.9-1.9
				c1-2.6,0.4-4.4-1.7-5.5c-2.7-1.4-5.4-1-6.8,1.3c-1,1.6-1.6,3.3-2.4,5c-0.4,0.9-0.1,1.4,0.9,1.6
				C174.4,204,176.5,204.4,178.5,204.9z M71,207.7c2.3-0.5,4.7-1,7.1-1.6c0.3-0.1,0.8-0.9,0.6-1.2c-0.9-1.8-1.8-3.6-2.9-5.3
				c-1.1-1.7-3.5-2.3-5.5-1.5c-1.9,0.7-3.5,2.2-3.2,4c0.3,1.9,1.7,3.6,2.7,5.4C70,207.6,70.5,207.6,71,207.7z M66.5,210.2
				c5.9,2.8,23.4-2.5,28.1-8.5C85.4,205.7,76.5,209.9,66.5,210.2z M155.8,200.4c6.6,5.9,23.8,10,27.9,6.5
				C173.7,207.2,164.8,203.8,155.8,200.4z M125.8,236.1c-1.6-0.1-3.5,1-3.6,2.1c-0.1,1.2,2.1,4.2,3.2,4.3c1.2,0.1,3.4-2.6,3.5-4.4
				C129,237.1,127.8,236.3,125.8,236.1z M102,199.5c-6.2,3.9-12.8,8-19.4,12.2C86.1,212.5,98.7,204.7,102,199.5z M148.1,198.6
				c1.8,3.6,17,12.4,19.6,10.9C161.1,205.8,154.4,202.1,148.1,198.6z M92,210.5c3.5,0.9,14.1-8.2,15.2-12.4
				C102.3,202.1,97.1,206.3,92,210.5z M142.6,197.5c0.7,3.5,13.2,12.7,15.8,11.2C153.1,204.9,147.7,201.1,142.6,197.5z M201.6,133.6
				c-4.6,2.7-9.1,0-13.7-0.1c3.6,2,7.3,3.5,11.5,3.5C201,137,201.9,135.3,201.6,133.6z M189.9,129c3.2,1.9,6.6,3,10.2,3.5
				c2.2,0.3,3.3-0.8,2.9-3.1C198.6,131.3,194.3,129.2,189.9,129z M204.6,124.6c-4.3,2.8-8.8,0.3-13.2,0.4c3.1,1.8,6.5,2.8,10.1,3.1
				C203.7,128.3,204.8,127,204.6,124.6z M192.8,120.3c3.4,2.1,6.8,2.8,10.2,3.2c2.3,0.3,3.2-0.7,3-3
				C201.7,122.5,197.5,120.4,192.8,120.3z M44.4,121.3c4.1,0.7,8,1.4,12,2.2c-1.9-1.3-3.9-2.5-6-3.4c-1.1-0.5-2.5-0.6-3.7-0.5
				C45.6,119.6,44.6,120.2,44.4,121.3z M194.8,116c3.2,1.8,6.5,2.9,10.2,3.1c1.9,0.1,2.7-1,2.4-2.9C203.1,118.2,199,116.2,194.8,116
				z M110.2,197.4c-2.8,3.5-5.7,7.3-8.5,10.8C105.6,208.2,111,200.3,110.2,197.4z M148.4,206.9c-2.9-3.3-5.9-6.7-8.7-10
				C139.5,200.9,144.3,206.4,148.4,206.9z M55.7,119.1c0.1-0.1,0.2-0.3,0.2-0.4c-2.1-1-4.2-2.3-6.5-3.1c-2-0.7-3.2,0.1-3.9,1.9
				C49,118.1,52.3,118.6,55.7,119.1z M197,111.9c3,1.6,6.1,2.8,9.4,3c1.3,0.1,2.3-0.3,1.9-1.9C204.5,112.6,200.8,112.2,197,111.9z
				 M54.2,126.2c0-0.2,0.1-0.4,0.1-0.6c-2.2-0.7-4.3-1.5-6.6-1.9c-1.8-0.4-2.9,0.7-3.3,2.5c1.6-0.1,3.2-0.4,4.8-0.3
				C50.9,125.9,52.5,126.1,54.2,126.2z M132.7,195.8c-1.8,1.4-2.5,3.8-1.8,6.1c0.4,1.2,1,2.4,2.6,2.5c-0.3-1.5-0.7-2.8-0.8-4.1
				C132.6,198.9,132.7,197.5,132.7,195.8z M109.3,206.2c3.3-1.6,5.7-7.3,3.7-9.6C111.8,199.7,110.6,202.9,109.3,206.2z M117,197.4
				c-1.2,2.8-2.4,5.5-3.6,8.2C117,204.8,119.1,199.8,117,197.4z M44.1,129.2c0.1,0.1,0.2,0.2,0.3,0.4c3.2-0.3,6.4-0.7,9.8-1.1
				c-1.7-1-6.6-1.6-8.1-1C45.3,127.8,44.7,128.6,44.1,129.2z M135.1,195.9c-2.3,2.6-1.2,8,1.7,9
				C136.3,201.9,135.7,198.9,135.1,195.9z M137.6,196.2c-1.7,2.3,1,8.1,3.9,8.5C140.2,201.9,138.9,199,137.6,196.2z M45.2,134.2
				c2.6-0.9,5.1-1.8,7.5-2.6C48.4,130.6,44.4,131.4,45.2,134.2z M50.2,112.5c0,0.2,0,0.3,0,0.5c2.6,1.2,5.3,2.5,7.9,3.7
				c0.1-0.2,0.2-0.4,0.4-0.6c-2.2-1.4-4.3-2.8-6.6-4C51.6,111.9,50.8,112.4,50.2,112.5z M51.7,134.3c-2.3,0.1-4.2,0.8-5.8,2.2
				c-0.3,0.3-0.2,1-0.3,1.5c0.3,0,0.7,0.2,0.9,0.1C48.2,136.9,49.8,135.7,51.7,134.3z"/>
			<path id="XMLID_42_" class="st0" d="M75.8,214.1c2.8,0,5.6-0.1,8.4,0.1c0.8,0.1,1.6,0.9,2.3,1.5c4,3.9,8.3,7.4,13.4,9.8
				c0.6,0.3,1.2,0.5,2.2,0.9c-1.4-2.7-2.7-4.9-3.7-7.3c-0.8-1.8-1.3-3.7-1.9-5.6c-0.3-1,0.1-1.4,1-1.6c2.7-0.7,5.4-1.4,8-2.2
				c1.3-0.4,1.7,0.1,2.1,1.3c1.3,4.8,2.7,9.6,4.2,14.3c0.3,1,1.1,1.9,1.6,2.8c0.2-0.1,0.3-0.2,0.5-0.2c-0.5-2-1.2-3.9-1.5-6
				c-0.7-4-1.2-8.1-1.7-12.2c-0.2-1.2,0.4-1.8,1.6-2c1.6-0.3,3.3-0.5,4.9-1.1c3.2-1.2,4.7-3.7,4.5-6.7c-0.2-2.8-2.4-5.2-5.5-6
				c-3.2-0.8-6.5-0.7-9.6,0.4c-4.9,1.7-9.7,3.7-14.5,5.7c-1.1,0.5-1.9,0.4-3-0.1c-3.5-1.4-7.1-2.5-10.6-3.8
				c-6.6-2.5-12.7-5.9-17.3-11.4c-3.7-4.5-5.4-9.8-5.9-15.5c-0.9-9.6-0.2-19.1,1.4-28.5c0.8-5,2.8-9.6,5.1-14.1
				c3-5.8,5.9-11.5,10.4-16.3c1.2-1.3,2.3-1.6,3.9-0.7c6,3.3,11.9,6.6,18.1,9.6c12.7,6,25.5,11.7,38.3,17.6c2.7,1.2,5.5,2.4,8.3,3.5
				c1.3,0.5,1.5,1,0.9,2.3c-2.4,5-3.3,10.1-1.6,15.7c2.8,9.4,12.2,15.8,21.9,14.9c8.9-0.8,15.1-5.2,19-13.1c0.6-1.2,1.2-1.4,2.4-0.8
				c2.8,1.2,5.7,2.3,8.6,3.2c1.4,0.5,1.9,1.2,1.9,2.6c0,7.7-2.8,14.2-8.1,19.7c-5,5.2-11.2,8.4-18,10.7c-2.1,0.7-4.2,1.7-6.2,2.7
				c-1.2,0.7-2.2,0.7-3.4,0.2c-5.6-2.4-11.3-4.4-17.4-5.1c-2.7-0.3-5.4-0.1-8,1.1c-2.6,1.3-4.2,3.7-4,6.2c0.2,2.9,2,5.2,4.9,6.1
				c1.4,0.4,2.8,0.5,4.3,0.7c2,0.2,2.4,0.5,2.2,2.4c-0.6,5.5-1.4,11-2.1,16.5c0,0.3-0.1,0.7-0.1,1c0.2,0.1,0.3,0.1,0.5,0.2
				c0.6-1.2,1.4-2.4,1.7-3.7c1.1-4,2-8,2.9-11.9c0.2-0.7,0.3-1.4,0.4-2c0.1-1,0.7-1.2,1.6-1c2.7,0.6,5.4,1.2,8.1,1.8
				c1.2,0.2,1.6,0.8,1.2,1.9c-1.4,3.7-2.8,7.3-4.2,11c-0.2,0.4-0.4,0.8-0.3,1.6c1.1-0.6,2.2-1.1,3.2-1.7c4.4-2.8,8.3-6.2,11.9-10.1
				c0.7-0.7,1.9-1.2,3-1.3c2.4-0.2,4.9-0.1,7.9-0.1c-1.9,1.9-3.6,3.7-5.3,5.3c-6.8,6.1-14.4,11-23.1,13.7
				c-5.5,1.7-11.2,2.8-16.8,4.1c-0.1,0-0.1,0-0.2,0c-5.7-1.5-11.5,0.9-17.3-0.7c-5.8-1.6-11.5-2.9-17-5.3
				c-5.4-2.4-10.4-5.6-14.9-9.4c-1.7-1.5-3.4-3-5.2-4.5C75.6,214.6,75.7,214.4,75.8,214.1z M88,133.1c-11.8-0.4-21.9,8.8-22.4,20.3
				c-0.4,11.7,8.7,21.3,20.7,21.8c11.7,0.5,21.9-8.8,22.4-20.3C109.1,143.1,100.1,133.5,88,133.1z M132.7,190c4.9,0,7.8-3,7.4-6.8
				c-0.2-1.6-0.9-3.2-1.7-4.6c-3.3-6.1-7.7-11.5-12.7-16.4c-1.4-1.4-2.1-1.3-3.4,0.2c-1.6,1.8-3.3,3.4-4.6,5.4
				c-2.9,4.6-5.7,9.2-8.3,13.9c-1.2,2.2-0.6,4.6,0.9,6.5c1.6,2,3.9,2.8,6.4,2.1c1.4-0.4,2.7-1.3,3.9-2.1c3.9-2.7,3.8-2.7,7.9-0.2
				C130.1,189,131.9,189.6,132.7,190z M125.2,228.9c0.2,0,0.4,0,0.6,0c0.1-0.5,0.3-0.9,0.3-1.4c0.2-2.9,0.5-5.8,0.6-8.6
				c0.2-4.3,0.2-8.5,0.2-12.8c0-1.4-0.4-2.6-1.9-2.6c-1.5,0-2,1.2-1.9,2.5c0,0.3,0,0.6,0,0.9c0.3,4.6,0.6,9.1,1,13.7
				C124.4,223.3,124.8,226.1,125.2,228.9z M154.4,193.9c0.5,0.4,1.2,1.3,2,1.4c1.2,0.3,1.9-0.7,1.9-1.9c0-1.1-0.5-1.9-1.7-1.9
				C155.4,191.5,154.6,192.1,154.4,193.9z"/>
			<path id="XMLID_41_" class="st0" d="M82,89.3c4.8,1.6,9.7,3.3,14.5,4.9c0.1-0.3,0.2-0.5,0.4-0.8c-4.9-2.6-9.7-5.3-14.6-7.9
				c0.1-0.2,0.2-0.4,0.2-0.6c5.2,1.8,10.5,3.5,15.7,5.3c0.1-0.2,0.2-0.4,0.3-0.6c-5.4-2.9-10.7-5.8-16.1-8.6
				c0.1-0.2,0.2-0.4,0.3-0.7c5.8,1.9,11.5,3.9,17.3,5.8c0.1-0.2,0.2-0.3,0.2-0.5c-5.6-3-11.2-6-16.8-9.1c0.1-0.2,0.2-0.4,0.3-0.7
				c5.9,2,11.8,4,17.7,6.1c0.1-0.2,0.1-0.3,0.2-0.5c-5.7-3.1-11.4-6.1-17.2-9.2c0.1-0.2,0.1-0.4,0.2-0.5c1.5,0.4,3.1,0.8,4.6,1.3
				c1.6,0.5,3.2,1.1,4.8,1.6c1.5,0.5,3,1.1,4.6,1.7c1.5,0.6,3.1,1.1,4.6,1.7c0.1-0.2,0.2-0.4,0.3-0.5c-5.9-3.2-11.8-6.4-17.8-9.5
				c0.1-0.2,0.2-0.4,0.3-0.6c2.4,0.7,4.7,1.4,7,2.2c12.7,4.3,24.8,10,36.8,15.8c8.7,4.1,17.5,8,26.2,11.9c1.4,0.6,2.8,1.3,4.2,2.2
				c-13.2-4-26.2-8.7-38.9-14.1c-0.1,0.2-0.2,0.5-0.3,0.7c6.2,3,12.5,6,18.7,8.9c6.3,2.9,12.7,5.8,19,8.6c-0.1,0.2-0.2,0.4-0.2,0.6
				c-6.5-2.3-13.1-4.6-19.6-7c-6.5-2.4-12.9-5-19.4-7.3c12.3,6.7,25.1,12.5,37.7,18.5c-13.4-4.1-26.5-9.2-39.4-14.6
				c-0.1,0.2-0.2,0.5-0.3,0.7c12.6,6,25.1,12,37.7,18.1c-0.1,0.1-0.1,0.3-0.2,0.4c-13.2-4.5-26.2-9.5-39.1-14.9
				c12.5,7.2,25.7,12.9,38.6,19.2c-0.1,0.2-0.2,0.4-0.2,0.6c-6.7-2.5-13.5-5-20.2-7.6c-6.6-2.6-13.2-5.4-19.9-7.9
				c12.9,7.3,26.3,13.6,39.6,20c-25.1-8.4-49.2-19-72.1-32.4C81.8,89.7,81.9,89.5,82,89.3z"/>
			<path id="XMLID_40_" class="st0" d="M229.5,141.8c0.5,1.8-0.4,2.8-1.4,3.7c-2.8,2.6-6.3,3.3-9.9,3.6c-4.8,0.5-9.6-0.4-14.3-1.2
				c-9.2-1.6-17.8-5.1-26.4-8.5c-11.4-4.5-22.7-9.6-34-14.4c-0.6-0.2-1.1-0.5-1.5-1.2c1.3,0.5,2.7,0.9,4,1.4
				c14.7,5.4,29.4,10.9,44.2,16.1c7.6,2.7,15.5,4.4,23.6,4.7c4.3,0.2,8.7,0.3,12.7-2C227.4,143.5,228.3,142.7,229.5,141.8z"/>
			<path id="XMLID_39_" class="st0" d="M146.4,163.6c1.8,0.6,3.7,1.3,5.5,1.9c0.1-0.1,0.2-0.2,0.2-0.3c-0.9-1.1-1.8-2.2-2.8-3.4
				c0.1-0.1,0.3-0.3,0.4-0.4c2,0.7,4,1.4,6,2.2c0.2-0.2,0.3-0.5,0.5-0.7c-0.8-0.5-1.7-1.1-2.5-1.6c0.1-0.3,0.2-0.5,0.3-0.8
				c4.5,1.4,9,1.2,13.4-0.6c0.2,0.4,0.4,0.7,0.7,1.1c-1,0.5-2.1,0.9-3.1,1.4c0.2,0.3,0.5,0.6,0.7,0.9c2-0.8,4-1.7,6-2.5
				c0.1,0.1,0.3,0.3,0.4,0.4c-0.8,1.1-1.6,2.3-2.4,3.4c0.1,0.1,0.1,0.2,0.2,0.3c1.8-0.7,3.6-1.4,5.4-2c0.1,0.1,0.3,0.3,0.4,0.4
				c-0.4,0.6-0.6,1.3-1.1,1.7c-7.1,7.3-19.9,7.6-27.4,0.7c-0.4-0.4-0.7-0.9-1.1-1.4C146.2,164.1,146.3,163.9,146.4,163.6z"/>
			<path id="XMLID_38_" class="st0" d="M178.5,204.9c-2-0.4-4.1-0.9-6.1-1.3c-0.9-0.2-1.3-0.7-0.9-1.6c0.8-1.7,1.5-3.4,2.4-5
				c1.4-2.3,4-2.7,6.8-1.3c2.1,1.1,2.7,2.9,1.7,5.5c-0.2,0.6-0.7,1.2-0.9,1.9C181,204.5,180,205.1,178.5,204.9z"/>
			<path id="XMLID_37_" class="st0" d="M71,207.7c-0.5-0.1-1-0.1-1.2-0.3c-1-1.8-2.4-3.5-2.7-5.4c-0.3-1.9,1.4-3.3,3.2-4
				c2-0.7,4.4-0.1,5.5,1.5c1.1,1.7,2,3.5,2.9,5.3c0.1,0.3-0.3,1.1-0.6,1.2C75.7,206.7,73.3,207.2,71,207.7z"/>
			<path id="XMLID_36_" class="st0" d="M66.5,210.2c10.1-0.3,18.9-4.6,28.1-8.5C89.9,207.7,72.4,213,66.5,210.2z"/>
			<path id="XMLID_35_" class="st0" d="M155.8,200.4c8.9,3.4,17.9,6.8,27.9,6.5C179.6,210.5,162.4,206.4,155.8,200.4z"/>
			<path id="XMLID_34_" class="st0" d="M125.8,236.1c2,0.1,3.2,0.9,3.2,2c-0.1,1.8-2.3,4.5-3.5,4.4c-1.1-0.1-3.4-3.1-3.2-4.3
				C122.3,237.2,124.2,236.1,125.8,236.1z"/>
			<path id="XMLID_33_" class="st0" d="M102,199.5c-3.4,5.1-16,12.9-19.4,12.2C89.2,207.6,95.8,203.4,102,199.5z"/>
			<path id="XMLID_32_" class="st0" d="M148.1,198.6c6.4,3.5,13,7.2,19.6,10.9C165.1,211,149.9,202.2,148.1,198.6z"/>
			<path id="XMLID_31_" class="st0" d="M92,210.5c5.1-4.1,10.3-8.4,15.2-12.4C106.1,202.3,95.5,211.3,92,210.5z"/>
			<path id="XMLID_30_" class="st0" d="M142.6,197.5c5.1,3.6,10.5,7.5,15.8,11.2C155.8,210.2,143.3,201,142.6,197.5z"/>
			<path id="XMLID_29_" class="st0" d="M201.6,133.6c0.3,1.8-0.6,3.5-2.2,3.5c-4.2,0-7.9-1.6-11.5-3.5
				C192.5,133.6,197.1,136.2,201.6,133.6z"/>
			<path id="XMLID_28_" class="st0" d="M189.9,129c4.4,0.2,8.7,2.3,13.1,0.4c0.3,2.3-0.7,3.4-2.9,3.1
				C196.5,132,193.1,130.9,189.9,129z"/>
			<path id="XMLID_27_" class="st0" d="M204.6,124.6c0.2,2.4-0.8,3.7-3.1,3.5c-3.6-0.3-6.9-1.3-10.1-3.1
				C195.8,124.9,200.3,127.4,204.6,124.6z"/>
			<path id="XMLID_26_" class="st0" d="M192.8,120.3c4.7,0.1,9,2.1,13.2,0.2c0.2,2.4-0.6,3.3-3,3
				C199.6,123.1,196.2,122.4,192.8,120.3z"/>
			<path id="XMLID_25_" class="st0" d="M44.4,121.3c0.2-1.2,1.2-1.8,2.3-1.8c1.2,0,2.6,0.1,3.7,0.5c2.1,0.9,4.1,2.1,6,3.4
				C52.4,122.8,48.4,122.1,44.4,121.3z"/>
			<path id="XMLID_24_" class="st0" d="M194.8,116c4.2,0.2,8.4,2.2,12.6,0.2c0.3,2-0.5,3-2.4,2.9C201.3,118.9,198,117.8,194.8,116z"
				/>
			<path id="XMLID_23_" class="st0" d="M110.2,197.4c0.9,2.9-4.6,10.8-8.5,10.8C104.5,204.7,107.4,200.9,110.2,197.4z"/>
			<path id="XMLID_22_" class="st0" d="M148.4,206.9c-4.1-0.5-8.9-6-8.7-10C142.5,200.1,145.5,203.6,148.4,206.9z"/>
			<path id="XMLID_21_" class="st0" d="M55.7,119.1c-3.4-0.5-6.7-1.1-10.1-1.6c0.7-1.7,1.9-2.5,3.9-1.9c2.2,0.8,4.3,2,6.5,3.1
				C55.9,118.9,55.8,119,55.7,119.1z"/>
			<path id="XMLID_20_" class="st0" d="M197,111.9c3.8,0.4,7.5,0.8,11.4,1.1c0.3,1.5-0.6,2-1.9,1.9C203.1,114.6,200,113.5,197,111.9
				z"/>
			<path id="XMLID_19_" class="st0" d="M54.2,126.2c-1.6-0.1-3.3-0.4-4.9-0.4c-1.6,0-3.2,0.2-4.8,0.3c0.4-1.8,1.5-2.9,3.3-2.5
				c2.2,0.5,4.4,1.3,6.6,1.9C54.3,125.8,54.2,126,54.2,126.2z"/>
			<path id="XMLID_18_" class="st0" d="M132.7,195.8c0,1.6-0.1,3.1,0,4.5c0.1,1.3,0.5,2.7,0.8,4.1c-1.6-0.1-2.2-1.3-2.6-2.5
				C130.2,199.7,130.9,197.2,132.7,195.8z"/>
			<path id="XMLID_17_" class="st0" d="M109.3,206.2c1.3-3.3,2.5-6.5,3.7-9.6C114.9,198.9,112.6,204.6,109.3,206.2z"/>
			<path id="XMLID_16_" class="st0" d="M117,197.4c2.1,2.4,0,7.5-3.6,8.2C114.6,202.9,115.8,200.1,117,197.4z"/>
			<path id="XMLID_15_" class="st0" d="M44.1,129.2c0.7-0.6,1.2-1.3,2-1.7c1.5-0.7,6.4,0,8.1,1c-3.4,0.4-6.6,0.7-9.8,1.1
				C44.3,129.4,44.2,129.3,44.1,129.2z"/>
			<path id="XMLID_14_" class="st0" d="M135.1,195.9c0.6,3,1.2,6,1.7,9C133.9,203.9,132.8,198.5,135.1,195.9z"/>
			<path id="XMLID_13_" class="st0" d="M137.6,196.2c1.3,2.8,2.6,5.7,3.9,8.5C138.6,204.3,135.9,198.5,137.6,196.2z"/>
			<path id="XMLID_12_" class="st0" d="M45.2,134.2c-0.8-2.9,3.2-3.6,7.5-2.6C50.3,132.5,47.8,133.3,45.2,134.2z"/>
			<path id="XMLID_11_" class="st0" d="M50.2,112.5c0.6-0.2,1.3-0.6,1.7-0.4c2.2,1.3,4.4,2.7,6.6,4c-0.1,0.2-0.2,0.4-0.4,0.6
				c-2.6-1.2-5.3-2.5-7.9-3.7C50.3,112.9,50.3,112.7,50.2,112.5z"/>
			<path id="XMLID_10_" class="st0" d="M51.7,134.3c-1.9,1.4-3.5,2.6-5.2,3.8c-0.2,0.1-0.6,0-0.9-0.1c0.1-0.5,0-1.3,0.3-1.5
				C47.4,135.2,49.3,134.5,51.7,134.3z"/>
			<path id="XMLID_7_" d="M88,133.1c12.1,0.4,21.2,10,20.7,21.8c-0.5,11.6-10.6,20.8-22.4,20.3c-12.1-0.5-21.2-10.1-20.7-21.8
				C66,141.9,76.2,132.6,88,133.1z M78.6,167c-0.1,0.1-0.1,0.2-0.2,0.3c-0.9-0.2-1.7-0.5-2.6-0.7c-1-0.2-2-0.4-3-0.5
				c0.7,0.9,1.1,2,2,2.6c8.1,6,18.7,5.2,26-1.7c0.5-0.4,0.8-1,1.2-1.5c-0.1-0.2-0.2-0.4-0.3-0.6c-1.8,0.6-3.6,1.3-5.3,1.9
				c-0.1-0.1-0.1-0.2-0.2-0.3c0.8-1.1,1.6-2.3,2.4-3.4c-0.1-0.1-0.3-0.2-0.4-0.4c-1.9,0.8-3.9,1.7-5.8,2.5c-0.1-0.1-0.1-0.3-0.2-0.4
				c0.6-0.8,1.3-1.5,1.9-2.3c-0.1-0.2-0.2-0.4-0.3-0.7c-4.3,2.1-8.7,1.7-13.2,0.7c-0.2,0.3-0.3,0.6-0.5,1c0.8,0.5,1.7,0.9,2.5,1.4
				c-0.1,0.2-0.3,0.4-0.4,0.6c-1.9-0.7-3.9-1.4-5.8-2c-0.1,0.2-0.3,0.3-0.4,0.5C76.8,164.9,77.7,165.9,78.6,167z"/>
			<path id="XMLID_6_" d="M132.7,190c-0.8-0.4-2.6-1.1-4.2-2c-4-2.4-4-2.5-7.9,0.2c-1.2,0.8-2.5,1.7-3.9,2.1
				c-2.5,0.7-4.7-0.1-6.4-2.1c-1.6-1.9-2.1-4.3-0.9-6.5c2.6-4.7,5.4-9.4,8.3-13.9c1.3-2,3-3.6,4.6-5.4c1.3-1.5,2.1-1.5,3.4-0.2
				c4.9,4.9,9.3,10.2,12.7,16.4c0.8,1.4,1.5,3,1.7,4.6C140.5,187.1,137.6,190,132.7,190z"/>
			<path id="XMLID_5_" d="M125.2,228.9c-0.4-2.8-0.8-5.6-1-8.4c-0.4-4.5-0.7-9.1-1-13.7c0-0.3,0-0.6,0-0.9c0-1.4,0.4-2.6,1.9-2.5
				c1.5,0,1.9,1.2,1.9,2.6c-0.1,4.3-0.1,8.6-0.2,12.8c-0.1,2.9-0.4,5.8-0.6,8.6c0,0.5-0.2,0.9-0.3,1.4
				C125.6,228.9,125.4,228.9,125.2,228.9z"/>
			<path id="XMLID_4_" d="M154.4,193.9c0.2-1.8,0.9-2.4,2.1-2.4c1.2,0,1.8,0.8,1.7,1.9c0,1.2-0.7,2.2-1.9,1.9
				C155.6,195.2,154.9,194.3,154.4,193.9z"/>
			<path id="XMLID_3_" class="st0" d="M78.6,167c-0.9-1.1-1.8-2.1-2.7-3.2c0.1-0.2,0.3-0.3,0.4-0.5c1.9,0.7,3.9,1.4,5.8,2
				c0.1-0.2,0.3-0.4,0.4-0.6c-0.8-0.5-1.7-0.9-2.5-1.4c0.2-0.3,0.3-0.6,0.5-1c4.5,1.1,8.9,1.5,13.2-0.7c0.1,0.2,0.2,0.4,0.3,0.7
				c-0.6,0.8-1.3,1.5-1.9,2.3c0.1,0.1,0.1,0.3,0.2,0.4c1.9-0.8,3.9-1.7,5.8-2.5c0.1,0.1,0.3,0.2,0.4,0.4c-0.8,1.1-1.6,2.3-2.4,3.4
				c0.1,0.1,0.1,0.2,0.2,0.3c1.8-0.6,3.6-1.3,5.3-1.9c0.1,0.2,0.2,0.4,0.3,0.6c-0.4,0.5-0.7,1.1-1.2,1.5c-7.3,7-18,7.7-26,1.7
				c-0.8-0.6-1.3-1.7-2-2.6c1,0.2,2,0.3,3,0.5c0.9,0.2,1.7,0.5,2.6,0.7C78.5,167.2,78.5,167.1,78.6,167z"/>
		</g>
</svg>
