<?xml version="1.0" encoding="utf-8"?>
<!-- Generator: Adobe Illustrator 19.0.0, SVG Export Plug-In . SVG Version: 6.00 Build 0)  -->
<svg version="1.0" id="Capa_1" xmlns="http://www.w3.org/2000/svg" xmlns:xlink="http://www.w3.org/1999/xlink" x="0px" y="0px"
	 viewBox="0 0 256 256" style="enable-background:new 0 0 256 256;" xml:space="preserve">
<style type="text/css">
	.st0{fill:#FFFFFF;stroke:#000000;stroke-width:0.2835;stroke-miterlimit:10;}
</style>
<g id="XMLID_15_">
	<path id="XMLID_25_" class="st0" d="M171.1,202.2c-0.3-1.9-0.7-3.6-0.9-5.2c-0.2-1.2,0.5-1.8,1.5-2.1c1.2-0.4,2.4-0.7,3.6-1
		c0.4-0.1,0.8-0.3,1.3-0.5c-2.5-1.2-16.7,2.4-19,4.8c1.5,1.2,3.6,1.8,4.6,4.1c-0.6-0.2-1-0.2-1.2-0.4c-3.3-3.2-7.3-2.9-11.3-1.9
		c-4.3,1.1-7.8,3.6-10.5,7.1c-1.5,1.9-2.9,3.8-4.6,5.4c-3.1,3-7.3,3.4-11.1,1.2c-0.8-0.5-1.7-1-2.4-1.6c-1.4-1.1-2.7-2.3-4.2-3.6
		c1.3-2.2,3-4.1,4.8-5.8c0.4-0.4,1.2-0.4,1.9-0.4c5.7,0.2,11.2-0.6,16.3-3c4.5-2.1,8.2-5.3,11.2-9.3c4-5.5,6.2-11.6,7.1-18.3
		c0.2-1.4,0.8-2.3,1.9-3.1c2.7-1.9,5.4-3.9,8.1-6c0.9-0.7,1.6-1.6,2.3-2.5c-0.1-0.1-0.2-0.3-0.3-0.4c-0.5,0.3-1.1,0.6-1.6,0.9
		c-3.6,2.5-7.2,5.1-10.9,7.4c-7.7,4.8-16.2,6.6-25.2,5.4c-2.5-0.3-5.5,0.6-6.9,4.1c1.9-0.6,2.9-2.8,5.1-2.6c0,0.3,0.2,0.7,0.1,1
		c-2.1,6-4.2,12-6.4,18.1c-3.6,10-10.9,16.2-20.5,20.2c-7.9,3.3-16.2,4.1-24.5,2.5c-10.3-2-18.1-7.8-23.7-16.7
		c-4.8-7.7-6.4-16.1-5.6-25c0.4-4.7,1.8-9.2,4.9-12.9c2.6-3.1,6-4.8,9.9-5.4c0.7-0.1,1.3-0.2,2.1-0.4c-1.5-0.4-2.1-1.4-2.9-2.6
		c-1.5-2.3-3.9-3.6-6.6-4.3c-0.5-0.1-1,0-1.5,0.2c2.6,1.6,6,2.3,7.2,6c-5.9,1.7-9.9,5.6-12.8,11.2c-1-1.2-1.9-2-2.5-2.9
		c-2.7-4.7-4.2-9.8-3.8-15.4c0.5-5.3,3.7-8.3,8.6-9.5c5.1-1.3,10-0.3,14.9,1.1c2.9,0.8,5.5,2.1,8,3.9c0.3,0.2,0.6,0.4,1,0.6
		c2.7-2.5,4.8-5.4,6.7-8.4c4.3-6.7,7.2-14,10.2-21.3c1.8-4.5,3.7-8.9,5.5-13.4c1.3-3.2,3.5-5.5,6.4-7.2c2.4-1.4,4.7-2.8,7.2-4
		c1-0.5,2.3-0.6,3.5-0.7c1.3-0.1,1.6,0.2,1.5,1.5c-0.4,3.8-0.8,7.7-1.3,11.5c-0.9,5.8-2.2,11.6-2.1,17.5c0,0.8,0.1,1.6,0.5,2.4
		c0.2-0.3,0.5-0.6,0.6-1c1.4-7.7,4.5-14.8,7.9-21.7c2.7-5.6,5.7-11.1,9.4-16.2c1-1.3,2-2.6,3.2-3.7c1.4-1.4,3.1-1.8,4.8-0.6
		c1.7,1.1,3.4,2.2,4.9,3.4c5.7,4.8,10.4,10.5,14.1,16.9c1.8,3.1,2.1,6.5,2.3,9.9c0.4,8-0.1,15.9-1.6,23.8c-0.5,2.5-1.3,4.9-2.1,7.3
		c-0.3,0.8-0.9,1.7-1.5,2.1c-3.2,2-6.6,3.8-9.9,5.7c-0.1,0.1-0.3,0-0.7,0c0.3-1.5,0.6-3,1.1-4.4c0.2-0.4,1.2-0.5,2-0.8
		c0.1-1.3-0.8-2.5-1.7-3.5c-0.9-1.2-1.3-2.4-1.2-3.9c0.1-4.4,0.1-8.8,0.1-13.2c0-1-0.1-1.9,1.5-2.1c-3.6-2.7-6.4-5.7-8.1-9.5
		c-1.6-3.7-2.9-7.4-4.4-11.3c-0.7,0.7-0.3,1.6-0.1,2.3c0.9,2.1,0.3,3.6-1.4,5.1c-6.1,5.3-10.2,11.9-13.4,19.3
		c-3,7.2-4.8,14.7-6.4,22.3c-0.5,2.2-1.2,4.4-1.8,6.8c1,1.1,2.7,1.4,4.2,1.7c7.1,1.5,14,0.8,20.8-2c0.8-0.4,1.6-0.9,2.7-0.6
		c0.5,0.1,1.1-0.5,1.7-0.9c3.8-2.5,7.5-5.2,11.4-7.4c6.3-3.5,13.1-5.4,20.4-5.9c5.6-0.3,11.2-0.1,16.6,1.1c4.9,1,9.6,2.6,13.8,5.4
		c5.1,3.4,7.1,9.3,6,14.7c-1.2,6.6-4.3,12.2-8.5,17.2c-7.8,9.4-17.3,16.7-28.1,22.4C172.9,201.6,172,201.8,171.1,202.2z M88.2,159.5
		c-3,0.6-5.5,1.5-8,1.6c-3.6,0.2-7.1-0.1-10.7-0.2c-2.1,0-4.3-0.1-6.4,0.2c-3.6,0.5-6.1,2.7-7.3,6.1c-0.6,1.5-0.9,3.1-1.2,4.7
		c-0.9,4.6-0.2,9.1,1.8,13.3c4.1,8.7,11.6,12.7,20.7,14.1c5.1,0.8,10.2,0.1,15.2-1.7c4-1.5,7.7-3.6,10.6-6.8c3-3.3,3.7-6.3,1.4-10.3
		c-1.4-2.4-3.2-4.3-5.2-6.1c-4.7-4.2-9.9-7.8-15.9-10.2c-0.7-0.3-1.3-0.7-2-1c0.1-0.2,0.1-0.3,0.2-0.5c8.9-0.5,17.1,2.4,25.3,5.4
		c-4.7-3.4-10-5.1-15.5-6.7c0.5-0.2,0.9-0.4,1.4-0.4c5.9-0.2,11.7,0.7,17.4,2.2c1.5,0.4,2.9,1.1,4.6,0.7c-1.7-0.9-3.5-1.6-5.4-2.1
		c-3.2-0.8-6.5-1.5-9.8-2.3c-1.5-0.4-1.7-0.7-1.3-2.2c1.1-4,2.1-8.1,3.2-12c2.2-7.9,3.1-15.9,3.5-24c0.1-2.3-0.3-4.6-0.5-6.9
		c0-0.3-0.3-0.6-0.4-0.9c-0.3,2.5-2.5,3.2-4,4.5c-0.5,0.4-1,0.7-1.4,1.1c-3.6,2.9-6.6,6.2-8.3,10.6c-1,2.6-1.9,5.2-2.7,7.8
		c-0.5,1.6-1.4,2.7-2.8,3.5c-1.5,0.8-3,1.6-4.4,2.7c-1.3,1-2.6,1.9-4.4,2c-0.1,0-0.1,0.2-0.3,0.5c1.9,0.6,2.4,2.4,3.4,3.7
		c1.6,2.2,3.4,4.3,5.2,6.3C85.3,157.4,86.6,158.2,88.2,159.5z M146.7,97c0.2-0.7,0.3-0.9,0.3-1.1c-1.2-3.6-2.9-7-5.8-9.5
		c-0.4-0.4-1-0.6-1.6-0.6c-2.2-0.2-4.9,2.5-4.9,5.1c0.8-0.9,1.5-1.8,2.3-2.5c1.6-1.4,3.3-1.4,4.7,0.1c0.8,0.9,1.5,2,2.1,3.1
		C144.7,93.1,145.5,94.8,146.7,97z M101.6,106.7c0.1,0.1,0.2,0.3,0.4,0.4c0.5-0.3,1-0.6,1.4-1c2.1-2.1,4.2-4.2,6.3-6.3
		c1-1.1,2.1-1.9,3.6-0.8c0.4-1.4,0.1-2.2-1.1-2.9C108.1,99,105.5,103.5,101.6,106.7z"/>
	<path id="XMLID_9_" class="st0" d="M57.2,99.9c2.8-11.3,9.1-21,14.6-31.1c-3.2,1.5-5.3,4.3-8.3,6.7c0.2-0.7,0.2-1,0.3-1.2
		c3.9-5.8,8-11.5,13.2-16.2c6.2-5.7,13.3-9.9,21.8-11.4c4.3-0.8,8.7-1.4,13.1-1.1c0.3,0,0.6-0.2,1.2-0.4c-3.5-3.4-8.1-2.9-12-4.4
		c1-0.2,1.9-0.5,2.9-0.7c5.3-1.4,10.7-1.9,16.1-1.2c3.9,0.5,7.9,1.5,11.6,2.7c10.2,3.3,18.9,9,26.2,16.8c0.2,0.2,0.4,0.4,0.7,0.6
		c0.1,0.1,0.3,0,0.7,0c-1.9-5.5-5.7-9.7-8.9-14.7c1.8,0.2,2.9,1.1,4,1.9c4.2,3.1,7.3,7.1,10.1,11.5c4.9,7.6,8.3,15.9,11.1,24.5
		c0.5,1.6,1,3.3,1.5,4.9c0.2,0.6,0.6,1.1,1,2c-1,0.7-2,1.4-3.4,2.3c0.4-1,1-1.6,1-2.2c0-0.7-0.4-1.4-0.8-2
		c-5-8.7-12.5-14.6-21.4-18.8c-5.3-2.5-11-4.2-16.7-5.3c-7.8-1.5-15.6-2-23.5-1.8c-0.2,0-0.4,0.2-0.9,0.3c2,1.2,4.2,1.2,6.1,1.8
		c2,0.6,4.2,0.7,6.3,2.3c-0.7,0.1-1.1,0.3-1.5,0.2c-9.6-1-19,0.1-28.1,3.3c-7.6,2.7-14.4,7-20.6,12.3c-6.1,5.3-11.4,11.3-16.2,17.8
		c-0.2,0.3-0.5,0.6-0.7,1C57.5,100,57.3,100,57.2,99.9z"/>
	<path id="XMLID_8_" class="st0" d="M115.6,151.2c0.2-2,0.2-3.6,0.6-5c1.3-5.5,2.5-11,4.5-16.3c2.8-7.3,6.4-14.1,12-19.7
		c1-1,2.2-2,3.3-3c1.3,2.3,2.3,4.4,3.6,6.4c1.2,1.8,2.7,3.4,4,5.1c0.4,0.6,1,1.2,1.1,1.9c0.8,5,0.7,9.9,0.2,14.9
		c0,0.3-0.2,0.5-0.2,0.8c-1.4-0.1-2.2-1.7-4-1.1c2.3,2,5.3,3.1,6.3,6.5c-0.7,0.1-1.2,0.1-1.8,0.2c-3.3,0.2-6.7,0.2-10,0.5
		c-5.2,0.5-9.6,2.8-14,5.5C119.4,148.8,117.7,149.9,115.6,151.2z"/>
	<path id="XMLID_7_" class="st0" d="M181.8,106.5c5.3-3.6,11.2-6.1,17.8-6.6c2.6-0.2,5.2-0.1,7.7,0.8c2.7,1,4,2.8,4.2,5.7
		c0.3,5.3-3.2,10-7.2,11.6c-2.7,1.1-5.4,0.8-8.1,0.5c-4-0.4-7.7-1.7-11.2-3.4c-1.3-0.7-2.1-1.7-2.1-3.1c-0.1-0.9,0-1.8-0.1-2.7
		C182.5,108.5,182.2,107.6,181.8,106.5z"/>
	<path id="XMLID_6_" class="st0" d="M114.5,154.9c4.6-4.9,10-7.7,16.1-9.8c0.5,0.7,1,1.3,1.6,1.9c1.7,1.9,3.7,3.2,6.4,2.7
		c1.8-0.3,2.9-1.3,3.6-2.9c0.3-0.7,0.6-1.4,0.7-2.1c0.2-1.4,1-1.7,2.3-1.2c0.6,1.6-0.3,2.9-1,4.1c-1.9,3.7-5.2,5.9-9,7.2
		c-6.4,2.2-13,2.1-19.6,0.8C115.4,155.4,115.1,155.2,114.5,154.9z"/>
	<path id="XMLID_5_" class="st0" d="M156.1,171.7c0.5,7.9-7.9,22-14.5,24.2c-0.8-7.2,0.1-13.9,5.2-19.6c1.1-1.3,2.5-2.3,4.4-2.6
		c0.2,0.9,0.3,1.7,0.5,2.7C153.8,175.4,153.6,172.4,156.1,171.7z"/>
	<path id="XMLID_4_" class="st0" d="M108.3,88.2c1.3-2.7,11.3-7.6,14.8-7.7C118.1,83.1,113.2,85.6,108.3,88.2z"/>
	<path id="XMLID_3_" class="st0" d="M97.3,153.5c-2.2-4.2-6-5.6-10.1-6.6c-2-0.5-4-1-6.4-1.6c3-3.1,6.6-4.4,10.5-6.1
		c-1-0.3-1.6-0.5-2.2-0.7c0.5-7.7,6.6-18.1,13.8-20.7C104.4,122.1,100.5,147.5,97.3,153.5z"/>
	<path id="XMLID_2_" class="st0" d="M68.9,165.9c8,0.6,14.6,3.4,20.2,8.6c0.7,0.7,1.4,1.6,1.8,2.5c1.2,2.4-0.1,5-2.7,5.8
		c-2.9,0.9-5.8,0.4-8.5-0.6c-5.3-2-9.9-5.2-13.7-9.4c-0.6-0.7-1.2-1.5-1.6-2.4c-0.9-1.8-0.2-3.4,1.7-4.1
		C67.2,166.1,68.3,166.1,68.9,165.9z"/>
	<path id="XMLID_1_" class="st0" d="M96,156.5c-0.1,2.2-0.6,2.7-2.4,2.6c-2.7-0.1-5.1-1.2-7.2-2.7c-2.9-2-5.1-4.7-6.8-7.8
		c-0.1-0.2-0.1-0.5-0.2-1.1c0.8-0.1,1.4-0.3,2-0.2c2.1,0.4,4.2,0.8,6.3,1.3c0.8,0.2,1.1,0.6,1.1,1.4c0,0.3-0.1,0.6-0.1,0.9
		c-0.1,3.4,2.1,4.9,5,5.4C94.4,156.5,95.2,156.4,96,156.5z"/>
</g>
</svg>
